<svg xmlns="http://www.w3.org/2000/svg" viewBox="0 0 768 124" width="384" role="img" aria-label="Ganimedes">
  <title>Ganimedes</title>
  <g fill="#4C1D95">
    <rect x="30" y="16" width="14" height="14"/>
    <rect x="44" y="16" width="14" height="14"/>
    <rect x="58" y="16" width="14" height="14"/>
    <rect x="16" y="30" width="14" height="14"/>
    <rect x="72" y="30" width="14" height="14"/>
    <rect x="16" y="44" width="14" height="14"/>
    <rect x="16" y="58" width="14" height="14"/>
    <rect x="58" y="58" width="14" height="14"/>
    <rect x="72" y="58" width="14" height="14"/>
    <rect x="16" y="72" width="14" height="14"/>
    <rect x="72" y="72" width="14" height="14"/>
    <rect x="16" y="86" width="14" height="14"/>
    <rect x="72" y="86" width="14" height="14"/>
    <rect x="30" y="100" width="14" height="14"/>
    <rect x="44" y="100" width="14" height="14"/>
    <rect x="58" y="100" width="14" height="14"/>
    <rect x="114" y="16" width="14" height="14"/>
    <rect x="128" y="16" width="14" height="14"/>
    <rect x="142" y="16" width="14" height="14"/>
    <rect x="100" y="30" width="14" height="14"/>
    <rect x="156" y="30" width="14" height="14"/>
    <rect x="100" y="44" width="14" height="14"/>
    <rect x="156" y="44" width="14" height="14"/>
    <rect x="100" y="58" width="14" height="14"/>
    <rect x="114" y="58" width="14" height="14"/>
    <rect x="128" y="58" width="14" height="14"/>
    <rect x="142" y="58" width="14" height="14"/>
    <rect x="156" y="58" width="14" height="14"/>
    <rect x="100" y="72" width="14" height="14"/>
    <rect x="156" y="72" width="14" height="14"/>
    <rect x="100" y="86" width="14" height="14"/>
    <rect x="156" y="86" width="14" height="14"/>
    <rect x="100" y="100" width="14" height="14"/>
    <rect x="156" y="100" width="14" height="14"/>
    <rect x="184" y="16" width="14" height="14"/>
    <rect x="240" y="16" width="14" height="14"/>
    <rect x="184" y="30" width="14" height="14"/>
    <rect x="198" y="30" width="14" height="14"/>
    <rect x="240" y="30" width="14" height="14"/>
    <rect x="184" y="44" width="14" height="14"/>
    <rect x="212" y="44" width="14" height="14"/>
    <rect x="240" y="44" width="14" height="14"/>
    <rect x="184" y="58" width="14" height="14"/>
    <rect x="212" y="58" width="14" height="14"/>
    <rect x="240" y="58" width="14" height="14"/>
    <rect x="184" y="72" width="14" height="14"/>
    <rect x="212" y="72" width="14" height="14"/>
    <rect x="240" y="72" width="14" height="14"/>
    <rect x="184" y="86" width="14" height="14"/>
    <rect x="226" y="86" width="14" height="14"/>
    <rect x="240" y="86" width="14" height="14"/>
    <rect x="184" y="100" width="14" height="14"/>
    <rect x="240" y="100" width="14" height="14"/>
    <rect x="268" y="16" width="14" height="14"/>
    <rect x="282" y="16" width="14" height="14"/>
    <rect x="296" y="16" width="14" height="14"/>
    <rect x="310" y="16" width="14" height="14"/>
    <rect x="324" y="16" width="14" height="14"/>
    <rect x="296" y="30" width="14" height="14"/>
    <rect x="296" y="44" width="14" height="14"/>
    <rect x="296" y="58" width="14" height="14"/>
    <rect x="296" y="72" width="14" height="14"/>
    <rect x="296" y="86" width="14" height="14"/>
    <rect x="268" y="100" width="14" height="14"/>
    <rect x="282" y="100" width="14" height="14"/>
    <rect x="296" y="100" width="14" height="14"/>
    <rect x="310" y="100" width="14" height="14"/>
    <rect x="324" y="100" width="14" height="14"/>
    <rect x="352" y="16" width="14" height="14"/>
    <rect x="408" y="16" width="14" height="14"/>
    <rect x="352" y="30" width="14" height="14"/>
    <rect x="366" y="30" width="14" height="14"/>
    <rect x="394" y="30" width="14" height="14"/>
    <rect x="408" y="30" width="14" height="14"/>
    <rect x="352" y="44" width="14" height="14"/>
    <rect x="380" y="44" width="14" height="14"/>
    <rect x="408" y="44" width="14" height="14"/>
    <rect x="352" y="58" width="14" height="14"/>
    <rect x="380" y="58" width="14" height="14"/>
    <rect x="408" y="58" width="14" height="14"/>
    <rect x="352" y="72" width="14" height="14"/>
    <rect x="408" y="72" width="14" height="14"/>
    <rect x="352" y="86" width="14" height="14"/>
    <rect x="408" y="86" width="14" height="14"/>
    <rect x="352" y="100" width="14" height="14"/>
    <rect x="408" y="100" width="14" height="14"/>
    <rect x="436" y="16" width="14" height="14"/>
    <rect x="450" y="16" width="14" height="14"/>
    <rect x="464" y="16" width="14" height="14"/>
    <rect x="478" y="16" width="14" height="14"/>
    <rect x="492" y="16" width="14" height="14"/>
    <rect x="436" y="30" width="14" height="14"/>
    <rect x="436" y="44" width="14" height="14"/>
    <rect x="436" y="58" width="14" height="14"/>
    <rect x="450" y="58" width="14" height="14"/>
    <rect x="464" y="58" width="14" height="14"/>
    <rect x="478" y="58" width="14" height="14"/>
    <rect x="436" y="72" width="14" height="14"/>
    <rect x="436" y="86" width="14" height="14"/>
    <rect x="436" y="100" width="14" height="14"/>
    <rect x="450" y="100" width="14" height="14"/>
    <rect x="464" y="100" width="14" height="14"/>
    <rect x="478" y="100" width="14" height="14"/>
    <rect x="492" y="100" width="14" height="14"/>
    <rect x="520" y="16" width="14" height="14"/>
    <rect x="534" y="16" width="14" height="14"/>
    <rect x="548" y="16" width="14" height="14"/>
    <rect x="562" y="16" width="14" height="14"/>
    <rect x="520" y="30" width="14" height="14"/>
    <rect x="576" y="30" width="14" height="14"/>
    <rect x="520" y="44" width="14" height="14"/>
    <rect x="576" y="44" width="14" height="14"/>
    <rect x="520" y="58" width="14" height="14"/>
    <rect x="576" y="58" width="14" height="14"/>
    <rect x="520" y="72" width="14" height="14"/>
    <rect x="576" y="72" width="14" height="14"/>
    <rect x="520" y="86" width="14" height="14"/>
    <rect x="576" y="86" width="14" height="14"/>
    <rect x="520" y="100" width="14" height="14"/>
    <rect x="534" y="100" width="14" height="14"/>
    <rect x="548" y="100" width="14" height="14"/>
    <rect x="562" y="100" width="14" height="14"/>
    <rect x="604" y="16" width="14" height="14"/>
    <rect x="618" y="16" width="14" height="14"/>
    <rect x="632" y="16" width="14" height="14"/>
    <rect x="646" y="16" width="14" height="14"/>
    <rect x="660" y="16" width="14" height="14"/>
    <rect x="604" y="30" width="14" height="14"/>
    <rect x="604" y="44" width="14" height="14"/>
    <rect x="604" y="58" width="14" height="14"/>
    <rect x="618" y="58" width="14" height="14"/>
    <rect x="632" y="58" width="14" height="14"/>
    <rect x="646" y="58" width="14" height="14"/>
    <rect x="604" y="72" width="14" height="14"/>
    <rect x="604" y="86" width="14" height="14"/>
    <rect x="604" y="100" width="14" height="14"/>
    <rect x="618" y="100" width="14" height="14"/>
    <rect x="632" y="100" width="14" height="14"/>
    <rect x="646" y="100" width="14" height="14"/>
    <rect x="660" y="100" width="14" height="14"/>
    <rect x="702" y="16" width="14" height="14"/>
    <rect x="716" y="16" width="14" height="14"/>
    <rect x="730" y="16" width="14" height="14"/>
    <rect x="744" y="16" width="14" height="14"/>
    <rect x="688" y="30" width="14" height="14"/>
    <rect x="688" y="44" width="14" height="14"/>
    <rect x="702" y="58" width="14" height="14"/>
    <rect x="716" y="58" width="14" height="14"/>
    <rect x="730" y="58" width="14" height="14"/>
    <rect x="744" y="72" width="14" height="14"/>
    <rect x="744" y="86" width="14" height="14"/>
    <rect x="688" y="100" width="14" height="14"/>
    <rect x="702" y="100" width="14" height="14"/>
    <rect x="716" y="100" width="14" height="14"/>
    <rect x="730" y="100" width="14" height="14"/>
  </g>
  <g fill="#8B5CF6">
    <rect x="24" y="10" width="14" height="14"/>
    <rect x="38" y="10" width="14" height="14"/>
    <rect x="52" y="10" width="14" height="14"/>
    <rect x="10" y="24" width="14" height="14"/>
    <rect x="66" y="24" width="14" height="14"/>
    <rect x="10" y="38" width="14" height="14"/>
    <rect x="10" y="52" width="14" height="14"/>
    <rect x="52" y="52" width="14" height="14"/>
    <rect x="66" y="52" width="14" height="14"/>
    <rect x="10" y="66" width="14" height="14"/>
    <rect x="66" y="66" width="14" height="14"/>
    <rect x="10" y="80" width="14" height="14"/>
    <rect x="66" y="80" width="14" height="14"/>
    <rect x="24" y="94" width="14" height="14"/>
    <rect x="38" y="94" width="14" height="14"/>
    <rect x="52" y="94" width="14" height="14"/>
    <rect x="108" y="10" width="14" height="14"/>
    <rect x="122" y="10" width="14" height="14"/>
    <rect x="136" y="10" width="14" height="14"/>
    <rect x="94" y="24" width="14" height="14"/>
    <rect x="150" y="24" width="14" height="14"/>
    <rect x="94" y="38" width="14" height="14"/>
    <rect x="150" y="38" width="14" height="14"/>
    <rect x="94" y="52" width="14" height="14"/>
    <rect x="108" y="52" width="14" height="14"/>
    <rect x="122" y="52" width="14" height="14"/>
    <rect x="136" y="52" width="14" height="14"/>
    <rect x="150" y="52" width="14" height="14"/>
    <rect x="94" y="66" width="14" height="14"/>
    <rect x="150" y="66" width="14" height="14"/>
    <rect x="94" y="80" width="14" height="14"/>
    <rect x="150" y="80" width="14" height="14"/>
    <rect x="94" y="94" width="14" height="14"/>
    <rect x="150" y="94" width="14" height="14"/>
    <rect x="178" y="10" width="14" height="14"/>
    <rect x="234" y="10" width="14" height="14"/>
    <rect x="178" y="24" width="14" height="14"/>
    <rect x="192" y="24" width="14" height="14"/>
    <rect x="234" y="24" width="14" height="14"/>
    <rect x="178" y="38" width="14" height="14"/>
    <rect x="206" y="38" width="14" height="14"/>
    <rect x="234" y="38" width="14" height="14"/>
    <rect x="178" y="52" width="14" height="14"/>
    <rect x="206" y="52" width="14" height="14"/>
    <rect x="234" y="52" width="14" height="14"/>
    <rect x="178" y="66" width="14" height="14"/>
    <rect x="206" y="66" width="14" height="14"/>
    <rect x="234" y="66" width="14" height="14"/>
    <rect x="178" y="80" width="14" height="14"/>
    <rect x="220" y="80" width="14" height="14"/>
    <rect x="234" y="80" width="14" height="14"/>
    <rect x="178" y="94" width="14" height="14"/>
    <rect x="234" y="94" width="14" height="14"/>
    <rect x="262" y="10" width="14" height="14"/>
    <rect x="276" y="10" width="14" height="14"/>
    <rect x="290" y="10" width="14" height="14"/>
    <rect x="304" y="10" width="14" height="14"/>
    <rect x="318" y="10" width="14" height="14"/>
    <rect x="290" y="24" width="14" height="14"/>
    <rect x="290" y="38" width="14" height="14"/>
    <rect x="290" y="52" width="14" height="14"/>
    <rect x="290" y="66" width="14" height="14"/>
    <rect x="290" y="80" width="14" height="14"/>
    <rect x="262" y="94" width="14" height="14"/>
    <rect x="276" y="94" width="14" height="14"/>
    <rect x="290" y="94" width="14" height="14"/>
    <rect x="304" y="94" width="14" height="14"/>
    <rect x="318" y="94" width="14" height="14"/>
    <rect x="346" y="10" width="14" height="14"/>
    <rect x="402" y="10" width="14" height="14"/>
    <rect x="346" y="24" width="14" height="14"/>
    <rect x="360" y="24" width="14" height="14"/>
    <rect x="388" y="24" width="14" height="14"/>
    <rect x="402" y="24" width="14" height="14"/>
    <rect x="346" y="38" width="14" height="14"/>
    <rect x="374" y="38" width="14" height="14"/>
    <rect x="402" y="38" width="14" height="14"/>
    <rect x="346" y="52" width="14" height="14"/>
    <rect x="374" y="52" width="14" height="14"/>
    <rect x="402" y="52" width="14" height="14"/>
    <rect x="346" y="66" width="14" height="14"/>
    <rect x="402" y="66" width="14" height="14"/>
    <rect x="346" y="80" width="14" height="14"/>
    <rect x="402" y="80" width="14" height="14"/>
    <rect x="346" y="94" width="14" height="14"/>
    <rect x="402" y="94" width="14" height="14"/>
    <rect x="430" y="10" width="14" height="14"/>
    <rect x="444" y="10" width="14" height="14"/>
    <rect x="458" y="10" width="14" height="14"/>
    <rect x="472" y="10" width="14" height="14"/>
    <rect x="486" y="10" width="14" height="14"/>
    <rect x="430" y="24" width="14" height="14"/>
    <rect x="430" y="38" width="14" height="14"/>
    <rect x="430" y="52" width="14" height="14"/>
    <rect x="444" y="52" width="14" height="14"/>
    <rect x="458" y="52" width="14" height="14"/>
    <rect x="472" y="52" width="14" height="14"/>
    <rect x="430" y="66" width="14" height="14"/>
    <rect x="430" y="80" width="14" height="14"/>
    <rect x="430" y="94" width="14" height="14"/>
    <rect x="444" y="94" width="14" height="14"/>
    <rect x="458" y="94" width="14" height="14"/>
    <rect x="472" y="94" width="14" height="14"/>
    <rect x="486" y="94" width="14" height="14"/>
    <rect x="514" y="10" width="14" height="14"/>
    <rect x="528" y="10" width="14" height="14"/>
    <rect x="542" y="10" width="14" height="14"/>
    <rect x="556" y="10" width="14" height="14"/>
    <rect x="514" y="24" width="14" height="14"/>
    <rect x="570" y="24" width="14" height="14"/>
    <rect x="514" y="38" width="14" height="14"/>
    <rect x="570" y="38" width="14" height="14"/>
    <rect x="514" y="52" width="14" height="14"/>
    <rect x="570" y="52" width="14" height="14"/>
    <rect x="514" y="66" width="14" height="14"/>
    <rect x="570" y="66" width="14" height="14"/>
    <rect x="514" y="80" width="14" height="14"/>
    <rect x="570" y="80" width="14" height="14"/>
    <rect x="514" y="94" width="14" height="14"/>
    <rect x="528" y="94" width="14" height="14"/>
    <rect x="542" y="94" width="14" height="14"/>
    <rect x="556" y="94" width="14" height="14"/>
    <rect x="598" y="10" width="14" height="14"/>
    <rect x="612" y="10" width="14" height="14"/>
    <rect x="626" y="10" width="14" height="14"/>
    <rect x="640" y="10" width="14" height="14"/>
    <rect x="654" y="10" width="14" height="14"/>
    <rect x="598" y="24" width="14" height="14"/>
    <rect x="598" y="38" width="14" height="14"/>
    <rect x="598" y="52" width="14" height="14"/>
    <rect x="612" y="52" width="14" height="14"/>
    <rect x="626" y="52" width="14" height="14"/>
    <rect x="640" y="52" width="14" height="14"/>
    <rect x="598" y="66" width="14" height="14"/>
    <rect x="598" y="80" width="14" height="14"/>
    <rect x="598" y="94" width="14" height="14"/>
    <rect x="612" y="94" width="14" height="14"/>
    <rect x="626" y="94" width="14" height="14"/>
    <rect x="640" y="94" width="14" height="14"/>
    <rect x="654" y="94" width="14" height="14"/>
    <rect x="696" y="10" width="14" height="14"/>
    <rect x="710" y="10" width="14" height="14"/>
    <rect x="724" y="10" width="14" height="14"/>
    <rect x="738" y="10" width="14" height="14"/>
    <rect x="682" y="24" width="14" height="14"/>
    <rect x="682" y="38" width="14" height="14"/>
    <rect x="696" y="52" width="14" height="14"/>
    <rect x="710" y="52" width="14" height="14"/>
    <rect x="724" y="52" width="14" height="14"/>
    <rect x="738" y="66" width="14" height="14"/>
    <rect x="738" y="80" width="14" height="14"/>
    <rect x="682" y="94" width="14" height="14"/>
    <rect x="696" y="94" width="14" height="14"/>
    <rect x="710" y="94" width="14" height="14"/>
    <rect x="724" y="94" width="14" height="14"/>
  </g>
</svg>
